<mxfile host="app.diagrams.net" modified="2024-03-04T04:50:07.605Z" agent="Mozilla/5.0 (Macintosh; Intel Mac OS X 10_15_7) AppleWebKit/537.36 (KHTML, like Gecko) Chrome/121.0.0.0 Safari/537.36" etag="s4x4S1hcmtS-zNLcH6lV" version="24.0.1" type="github">
  <diagram id="R2lEEEUBdFMjLlhIrx00" name="Page-1">
    <mxGraphModel dx="1178" dy="655" grid="0" gridSize="10" guides="1" tooltips="1" connect="1" arrows="1" fold="1" page="1" pageScale="1" pageWidth="850" pageHeight="1100" background="#FFFFFF" math="0" shadow="0" extFonts="Permanent Marker^https://fonts.googleapis.com/css?family=Permanent+Marker">
      <root>
        <mxCell id="0" />
        <mxCell id="1" parent="0" />
        <mxCell id="yAo2lBSxFacvn9BIt4Kw-78" style="edgeStyle=orthogonalEdgeStyle;rounded=0;orthogonalLoop=1;jettySize=auto;html=1;exitX=0;exitY=0.5;exitDx=0;exitDy=0;" edge="1" parent="1" source="yAo2lBSxFacvn9BIt4Kw-25">
          <mxGeometry relative="1" as="geometry">
            <mxPoint x="347" y="288" as="targetPoint" />
          </mxGeometry>
        </mxCell>
        <mxCell id="yAo2lBSxFacvn9BIt4Kw-25" value="Department" style="swimlane;childLayout=stackLayout;horizontal=1;startSize=50;horizontalStack=0;rounded=1;fontSize=14;fontStyle=0;strokeWidth=2;resizeParent=0;resizeLast=1;shadow=0;dashed=0;align=center;arcSize=4;whiteSpace=wrap;html=1;" vertex="1" parent="1">
          <mxGeometry x="347" y="237" width="160" height="82" as="geometry" />
        </mxCell>
        <mxCell id="yAo2lBSxFacvn9BIt4Kw-26" value="DepartmentNo" style="align=left;strokeColor=none;fillColor=none;spacingLeft=4;fontSize=12;verticalAlign=top;resizable=0;rotatable=0;part=1;html=1;" vertex="1" parent="yAo2lBSxFacvn9BIt4Kw-25">
          <mxGeometry y="50" width="160" height="32" as="geometry" />
        </mxCell>
        <mxCell id="yAo2lBSxFacvn9BIt4Kw-41" style="edgeStyle=orthogonalEdgeStyle;rounded=0;orthogonalLoop=1;jettySize=auto;html=1;exitX=0.5;exitY=1;exitDx=0;exitDy=0;" edge="1" parent="yAo2lBSxFacvn9BIt4Kw-25" source="yAo2lBSxFacvn9BIt4Kw-26" target="yAo2lBSxFacvn9BIt4Kw-26">
          <mxGeometry relative="1" as="geometry" />
        </mxCell>
        <mxCell id="yAo2lBSxFacvn9BIt4Kw-44" style="edgeStyle=orthogonalEdgeStyle;rounded=0;orthogonalLoop=1;jettySize=auto;html=1;exitX=0.5;exitY=1;exitDx=0;exitDy=0;" edge="1" parent="yAo2lBSxFacvn9BIt4Kw-25" source="yAo2lBSxFacvn9BIt4Kw-26" target="yAo2lBSxFacvn9BIt4Kw-26">
          <mxGeometry relative="1" as="geometry" />
        </mxCell>
        <mxCell id="yAo2lBSxFacvn9BIt4Kw-29" value="" style="edgeStyle=entityRelationEdgeStyle;fontSize=12;html=1;endArrow=ERoneToMany;startArrow=ERmandOne;rounded=0;entryX=0;entryY=0.5;entryDx=0;entryDy=0;exitX=1;exitY=0.5;exitDx=0;exitDy=0;" edge="1" parent="1" target="yAo2lBSxFacvn9BIt4Kw-25">
          <mxGeometry width="100" height="100" relative="1" as="geometry">
            <mxPoint x="172" y="278" as="sourcePoint" />
            <mxPoint x="280" y="186" as="targetPoint" />
            <Array as="points">
              <mxPoint x="167" y="291" />
            </Array>
          </mxGeometry>
        </mxCell>
        <mxCell id="yAo2lBSxFacvn9BIt4Kw-30" value="" style="triangle;whiteSpace=wrap;html=1;" vertex="1" parent="1">
          <mxGeometry x="222" y="261" width="20" height="10" as="geometry" />
        </mxCell>
        <mxCell id="yAo2lBSxFacvn9BIt4Kw-32" value="Operates" style="text;strokeColor=none;fillColor=none;spacingLeft=4;spacingRight=4;overflow=hidden;rotatable=0;points=[[0,0.5],[1,0.5]];portConstraint=eastwest;fontSize=12;whiteSpace=wrap;html=1;" vertex="1" parent="1">
          <mxGeometry x="252" y="251" width="85" height="30" as="geometry" />
        </mxCell>
        <mxCell id="yAo2lBSxFacvn9BIt4Kw-34" value="4..4" style="text;html=1;align=center;verticalAlign=middle;resizable=0;points=[];autosize=1;strokeColor=none;fillColor=none;" vertex="1" parent="1">
          <mxGeometry x="305" y="286" width="40" height="30" as="geometry" />
        </mxCell>
        <mxCell id="yAo2lBSxFacvn9BIt4Kw-38" value="Employee" style="swimlane;childLayout=stackLayout;horizontal=1;startSize=50;horizontalStack=0;rounded=1;fontSize=14;fontStyle=0;strokeWidth=2;resizeParent=0;resizeLast=1;shadow=0;dashed=0;align=center;arcSize=4;whiteSpace=wrap;html=1;" vertex="1" parent="1">
          <mxGeometry x="643" y="235" width="160" height="100" as="geometry" />
        </mxCell>
        <mxCell id="yAo2lBSxFacvn9BIt4Kw-39" value="EmployeeNo" style="align=left;strokeColor=none;fillColor=none;spacingLeft=4;fontSize=12;verticalAlign=top;resizable=0;rotatable=0;part=1;html=1;" vertex="1" parent="yAo2lBSxFacvn9BIt4Kw-38">
          <mxGeometry y="50" width="160" height="50" as="geometry" />
        </mxCell>
        <mxCell id="yAo2lBSxFacvn9BIt4Kw-40" style="edgeStyle=orthogonalEdgeStyle;rounded=0;orthogonalLoop=1;jettySize=auto;html=1;exitX=0.5;exitY=1;exitDx=0;exitDy=0;" edge="1" parent="yAo2lBSxFacvn9BIt4Kw-38" source="yAo2lBSxFacvn9BIt4Kw-39" target="yAo2lBSxFacvn9BIt4Kw-39">
          <mxGeometry relative="1" as="geometry" />
        </mxCell>
        <mxCell id="yAo2lBSxFacvn9BIt4Kw-80" style="edgeStyle=orthogonalEdgeStyle;rounded=0;orthogonalLoop=1;jettySize=auto;html=1;exitX=0.5;exitY=1;exitDx=0;exitDy=0;" edge="1" parent="yAo2lBSxFacvn9BIt4Kw-38" source="yAo2lBSxFacvn9BIt4Kw-39" target="yAo2lBSxFacvn9BIt4Kw-39">
          <mxGeometry relative="1" as="geometry" />
        </mxCell>
        <mxCell id="yAo2lBSxFacvn9BIt4Kw-46" value="1..1" style="text;html=1;align=center;verticalAlign=middle;resizable=0;points=[];autosize=1;strokeColor=none;fillColor=none;" vertex="1" parent="1">
          <mxGeometry x="510" y="286" width="40" height="30" as="geometry" />
        </mxCell>
        <mxCell id="yAo2lBSxFacvn9BIt4Kw-47" value="1..*" style="text;html=1;align=center;verticalAlign=middle;resizable=0;points=[];autosize=1;strokeColor=none;fillColor=none;" vertex="1" parent="1">
          <mxGeometry x="597" y="282" width="40" height="30" as="geometry" />
        </mxCell>
        <mxCell id="yAo2lBSxFacvn9BIt4Kw-48" value="" style="triangle;whiteSpace=wrap;html=1;" vertex="1" parent="1">
          <mxGeometry x="522" y="251" width="20" height="10" as="geometry" />
        </mxCell>
        <mxCell id="yAo2lBSxFacvn9BIt4Kw-51" value="Employees" style="text;strokeColor=none;fillColor=none;spacingLeft=4;spacingRight=4;overflow=hidden;rotatable=0;points=[[0,0.5],[1,0.5]];portConstraint=eastwest;fontSize=12;whiteSpace=wrap;html=1;" vertex="1" parent="1">
          <mxGeometry x="545" y="241" width="80" height="30" as="geometry" />
        </mxCell>
        <mxCell id="yAo2lBSxFacvn9BIt4Kw-58" value="Dependent" style="swimlane;childLayout=stackLayout;horizontal=1;startSize=50;horizontalStack=0;rounded=1;fontSize=14;fontStyle=0;strokeWidth=2;resizeParent=0;resizeLast=1;shadow=0;dashed=0;align=center;arcSize=4;whiteSpace=wrap;html=1;" vertex="1" parent="1">
          <mxGeometry x="653" y="458" width="160" height="100" as="geometry" />
        </mxCell>
        <mxCell id="yAo2lBSxFacvn9BIt4Kw-59" value="DependentNo" style="align=left;strokeColor=none;fillColor=none;spacingLeft=4;fontSize=12;verticalAlign=top;resizable=0;rotatable=0;part=1;html=1;" vertex="1" parent="yAo2lBSxFacvn9BIt4Kw-58">
          <mxGeometry y="50" width="160" height="50" as="geometry" />
        </mxCell>
        <mxCell id="yAo2lBSxFacvn9BIt4Kw-60" style="edgeStyle=orthogonalEdgeStyle;rounded=0;orthogonalLoop=1;jettySize=auto;html=1;exitX=0.5;exitY=1;exitDx=0;exitDy=0;" edge="1" parent="yAo2lBSxFacvn9BIt4Kw-58" source="yAo2lBSxFacvn9BIt4Kw-59" target="yAo2lBSxFacvn9BIt4Kw-59">
          <mxGeometry relative="1" as="geometry" />
        </mxCell>
        <mxCell id="yAo2lBSxFacvn9BIt4Kw-62" value="1..1" style="text;html=1;align=center;verticalAlign=middle;resizable=0;points=[];autosize=1;strokeColor=none;fillColor=none;" vertex="1" parent="1">
          <mxGeometry x="706" y="332" width="40" height="30" as="geometry" />
        </mxCell>
        <mxCell id="yAo2lBSxFacvn9BIt4Kw-63" value="0..*" style="text;html=1;align=center;verticalAlign=middle;resizable=0;points=[];autosize=1;strokeColor=none;fillColor=none;" vertex="1" parent="1">
          <mxGeometry x="708" y="431" width="40" height="30" as="geometry" />
        </mxCell>
        <mxCell id="yAo2lBSxFacvn9BIt4Kw-64" value="" style="triangle;whiteSpace=wrap;html=1;rotation=90;" vertex="1" parent="1">
          <mxGeometry x="720.5" y="378.5" width="15" height="10" as="geometry" />
        </mxCell>
        <mxCell id="yAo2lBSxFacvn9BIt4Kw-65" value="has" style="text;strokeColor=none;fillColor=none;spacingLeft=4;spacingRight=4;overflow=hidden;rotatable=0;points=[[0,0.5],[1,0.5]];portConstraint=eastwest;fontSize=12;whiteSpace=wrap;html=1;" vertex="1" parent="1">
          <mxGeometry x="736" y="368" width="80" height="30" as="geometry" />
        </mxCell>
        <mxCell id="yAo2lBSxFacvn9BIt4Kw-69" value="EmploymentHistory" style="swimlane;childLayout=stackLayout;horizontal=1;startSize=50;horizontalStack=0;rounded=1;fontSize=14;fontStyle=0;strokeWidth=2;resizeParent=0;resizeLast=1;shadow=0;dashed=0;align=center;arcSize=4;whiteSpace=wrap;html=1;" vertex="1" parent="1">
          <mxGeometry x="627" y="60" width="160" height="100" as="geometry" />
        </mxCell>
        <mxCell id="yAo2lBSxFacvn9BIt4Kw-70" value="EmployeeNo (FK)" style="align=left;strokeColor=none;fillColor=none;spacingLeft=4;fontSize=12;verticalAlign=top;resizable=0;rotatable=0;part=1;html=1;" vertex="1" parent="yAo2lBSxFacvn9BIt4Kw-69">
          <mxGeometry y="50" width="160" height="50" as="geometry" />
        </mxCell>
        <mxCell id="yAo2lBSxFacvn9BIt4Kw-71" style="edgeStyle=orthogonalEdgeStyle;rounded=0;orthogonalLoop=1;jettySize=auto;html=1;exitX=0.5;exitY=1;exitDx=0;exitDy=0;" edge="1" parent="yAo2lBSxFacvn9BIt4Kw-69" source="yAo2lBSxFacvn9BIt4Kw-70" target="yAo2lBSxFacvn9BIt4Kw-70">
          <mxGeometry relative="1" as="geometry" />
        </mxCell>
        <mxCell id="yAo2lBSxFacvn9BIt4Kw-73" value="1..1" style="text;html=1;align=center;verticalAlign=middle;resizable=0;points=[];autosize=1;strokeColor=none;fillColor=none;" vertex="1" parent="1">
          <mxGeometry x="692" y="209" width="40" height="30" as="geometry" />
        </mxCell>
        <mxCell id="yAo2lBSxFacvn9BIt4Kw-74" value="0..1" style="text;html=1;align=center;verticalAlign=middle;resizable=0;points=[];autosize=1;strokeColor=none;fillColor=none;" vertex="1" parent="1">
          <mxGeometry x="695" y="156" width="38" height="26" as="geometry" />
        </mxCell>
        <mxCell id="yAo2lBSxFacvn9BIt4Kw-75" value="" style="triangle;whiteSpace=wrap;html=1;rotation=-90;" vertex="1" parent="1">
          <mxGeometry x="713" y="191" width="14" height="10" as="geometry" />
        </mxCell>
        <mxCell id="yAo2lBSxFacvn9BIt4Kw-76" value="has" style="text;strokeColor=none;fillColor=none;spacingLeft=4;spacingRight=4;overflow=hidden;rotatable=0;points=[[0,0.5],[1,0.5]];portConstraint=eastwest;fontSize=12;whiteSpace=wrap;html=1;" vertex="1" parent="1">
          <mxGeometry x="725" y="183" width="80" height="30" as="geometry" />
        </mxCell>
        <mxCell id="yAo2lBSxFacvn9BIt4Kw-45" value="" style="edgeStyle=entityRelationEdgeStyle;fontSize=12;html=1;endArrow=ERoneToMany;startArrow=ERmandOne;rounded=0;exitX=1;exitY=0;exitDx=0;exitDy=0;entryX=0;entryY=0.5;entryDx=0;entryDy=0;" edge="1" parent="1" source="yAo2lBSxFacvn9BIt4Kw-26" target="yAo2lBSxFacvn9BIt4Kw-38">
          <mxGeometry width="100" height="100" relative="1" as="geometry">
            <mxPoint x="620" y="279" as="sourcePoint" />
            <mxPoint x="624" y="274" as="targetPoint" />
            <Array as="points">
              <mxPoint x="257" y="534.46" />
              <mxPoint x="200" y="444" />
              <mxPoint x="362" y="526.96" />
              <mxPoint x="690" y="473" />
              <mxPoint x="292" y="551" />
              <mxPoint x="312" y="586.96" />
              <mxPoint x="325" y="620.96" />
            </Array>
          </mxGeometry>
        </mxCell>
        <mxCell id="yAo2lBSxFacvn9BIt4Kw-83" value="&lt;div&gt;Company&lt;/div&gt;" style="swimlane;childLayout=stackLayout;horizontal=1;startSize=50;horizontalStack=0;rounded=1;fontSize=14;fontStyle=0;strokeWidth=2;resizeParent=0;resizeLast=1;shadow=0;dashed=0;align=center;arcSize=4;whiteSpace=wrap;html=1;" vertex="1" parent="1">
          <mxGeometry x="12" y="228" width="160" height="100" as="geometry" />
        </mxCell>
        <mxCell id="yAo2lBSxFacvn9BIt4Kw-84" value="CompanyNo" style="align=left;strokeColor=none;fillColor=none;spacingLeft=4;fontSize=12;verticalAlign=top;resizable=0;rotatable=0;part=1;html=1;" vertex="1" parent="yAo2lBSxFacvn9BIt4Kw-83">
          <mxGeometry y="50" width="160" height="50" as="geometry" />
        </mxCell>
        <mxCell id="yAo2lBSxFacvn9BIt4Kw-85" style="edgeStyle=orthogonalEdgeStyle;rounded=0;orthogonalLoop=1;jettySize=auto;html=1;exitX=0.5;exitY=1;exitDx=0;exitDy=0;" edge="1" parent="yAo2lBSxFacvn9BIt4Kw-83" source="yAo2lBSxFacvn9BIt4Kw-84" target="yAo2lBSxFacvn9BIt4Kw-84">
          <mxGeometry relative="1" as="geometry" />
        </mxCell>
        <mxCell id="yAo2lBSxFacvn9BIt4Kw-86" value="1..1" style="text;html=1;align=center;verticalAlign=middle;resizable=0;points=[];autosize=1;strokeColor=none;fillColor=none;" vertex="1" parent="1">
          <mxGeometry x="166" y="282" width="38" height="26" as="geometry" />
        </mxCell>
        <mxCell id="yAo2lBSxFacvn9BIt4Kw-90" value="" style="line;strokeWidth=2;html=1;rotation=90;" vertex="1" parent="1">
          <mxGeometry x="658.5" y="192.5" width="75" height="10" as="geometry" />
        </mxCell>
        <mxCell id="yAo2lBSxFacvn9BIt4Kw-91" value="" style="line;strokeWidth=2;html=1;rotation=90;" vertex="1" parent="1">
          <mxGeometry x="645.88" y="390.63" width="124.25" height="10" as="geometry" />
        </mxCell>
      </root>
    </mxGraphModel>
  </diagram>
</mxfile>
